<?xml version="1.0" encoding="UTF-8" ?>
<!DOCTYPE svg PUBLIC "-//W3C//DTD SVG 1.1//EN" "http://www.w3.org/Graphics/SVG/1.1/DTD/svg11.dtd">
<svg width="204pt" height="32pt" viewBox="0 0 204 32" version="1.1" xmlns="http://www.w3.org/2000/svg">
<g id="#222222ff">
<path fill="#222222" opacity="1.00" d=" M 0.00 0.00 L 204.00 0.00 L 204.00 32.00 L 0.00 32.00 L 0.00 0.00 M 133.00 2.00 C 133.00 11.33 133.00 20.67 133.00 30.00 C 156.00 30.00 179.00 30.00 202.00 30.00 C 202.00 20.67 202.00 11.33 202.00 2.00 C 179.00 2.00 156.00 2.00 133.00 2.00 M 6.73 5.00 C 6.73 12.33 6.73 19.67 6.73 27.00 C 8.16 27.00 9.58 27.00 11.00 27.00 C 11.08 21.91 10.88 16.83 10.56 11.75 C 12.04 16.82 13.47 21.90 14.88 27.00 C 15.61 27.00 17.06 27.00 17.79 27.00 C 19.22 22.13 20.56 17.24 21.83 12.33 C 21.95 17.22 21.54 22.10 21.58 27.00 C 23.05 27.00 24.53 27.00 26.00 27.00 C 26.00 19.67 26.00 12.33 26.00 4.99 C 24.10 5.00 22.20 5.00 20.30 5.02 C 19.01 10.24 17.72 15.47 16.38 20.68 C 15.05 15.45 13.56 10.25 12.32 5.00 C 10.46 5.00 8.60 5.00 6.73 5.00 M 29.73 5.00 C 29.73 12.33 29.73 19.67 29.73 27.00 C 33.82 27.00 37.91 27.00 42.00 27.00 C 42.00 26.25 42.00 24.75 42.00 24.00 C 39.33 24.00 36.67 24.00 34.00 24.00 C 34.00 21.67 34.00 19.34 34.00 17.00 C 36.25 16.99 38.49 17.01 40.74 16.99 C 40.74 16.25 40.74 14.75 40.74 14.01 C 38.49 13.99 36.25 14.01 34.00 14.00 C 34.00 12.00 34.00 10.00 34.00 8.00 C 36.67 8.00 39.33 8.00 42.00 8.00 C 42.00 7.25 42.00 5.75 42.00 5.00 C 37.91 5.00 33.82 5.00 29.73 5.00 M 44.73 5.01 C 44.73 12.34 44.73 19.67 44.73 27.00 C 46.16 27.00 47.58 27.00 49.00 27.00 C 49.00 23.92 48.99 20.83 49.02 17.75 C 49.54 17.87 50.57 18.12 51.09 18.25 C 52.54 20.97 53.22 24.05 54.30 26.94 C 55.91 26.98 57.52 27.00 59.14 27.02 C 57.85 23.74 56.59 20.45 55.37 17.14 C 58.67 14.77 59.64 9.36 56.49 6.50 C 53.12 3.98 48.61 5.31 44.73 5.01 M 61.90 9.95 C 61.01 14.11 60.84 18.66 62.14 22.75 C 63.93 27.58 70.68 28.31 74.34 25.25 C 75.75 23.88 75.84 21.79 76.36 20.01 C 74.95 20.00 73.54 20.00 72.13 20.01 C 72.31 22.97 69.30 25.47 66.71 23.28 C 64.99 20.19 65.69 16.40 65.64 13.00 C 65.66 10.96 66.28 7.72 68.98 7.95 C 71.40 7.64 71.71 10.30 72.14 12.00 C 73.55 12.00 74.96 11.99 76.38 11.98 C 75.87 10.18 75.64 8.14 74.25 6.77 C 70.49 3.39 63.25 4.76 61.90 9.95 M 78.53 5.00 C 78.67 10.69 78.26 16.39 78.72 22.06 C 79.85 28.72 91.26 28.77 92.38 22.10 C 92.92 16.43 92.44 10.70 92.61 5.00 C 91.16 5.00 89.71 5.00 88.26 5.00 C 87.73 11.32 89.47 18.03 87.20 24.05 C 86.36 24.04 84.66 24.03 83.81 24.02 C 81.83 17.91 83.33 11.31 82.87 5.00 C 81.42 5.00 79.98 5.00 78.53 5.00 M 95.73 5.01 C 95.73 12.34 95.73 19.67 95.73 27.00 C 97.15 27.00 98.58 27.00 100.00 27.00 C 100.00 23.92 99.99 20.83 100.02 17.75 C 100.54 17.87 101.58 18.12 102.09 18.25 C 103.53 20.98 104.22 24.05 105.30 26.94 C 106.91 26.98 108.52 27.00 110.13 27.02 C 108.85 23.74 107.58 20.45 106.37 17.14 C 109.49 14.85 110.52 10.04 107.98 6.96 C 104.72 3.81 99.78 5.34 95.73 5.01 M 110.21 5.00 C 111.85 8.92 113.48 12.85 115.10 16.79 C 116.54 20.00 115.89 23.60 115.99 27.00 C 117.46 27.00 118.94 27.00 120.41 27.00 C 120.42 24.21 120.20 21.40 120.57 18.62 C 122.19 14.00 124.28 9.55 126.08 5.00 C 124.50 5.00 122.91 5.00 121.33 5.01 C 120.33 8.19 119.41 11.41 117.99 14.43 C 116.94 11.30 115.97 8.13 114.92 5.00 C 113.35 5.00 111.78 5.00 110.21 5.00 Z" />
<path fill="#222222" opacity="1.00" d=" M 49.00 7.88 C 50.54 8.26 52.93 7.38 53.68 9.27 C 54.30 11.04 54.34 13.45 52.75 14.74 C 51.51 14.94 50.26 15.07 49.00 15.14 C 49.00 12.72 49.00 10.30 49.00 7.88 Z" />
<path fill="#222222" opacity="1.00" d=" M 100.00 7.88 C 101.55 8.26 103.94 7.38 104.68 9.28 C 105.30 11.05 105.32 13.38 103.81 14.72 C 102.55 14.93 101.28 15.07 100.00 15.15 C 100.00 12.72 100.00 10.30 100.00 7.88 Z" />
</g>
<g id="#ffffffff">
<path fill="#ffffff" opacity="1.00" d=" M 6.73 5.00 C 8.60 5.00 10.46 5.00 12.32 5.00 C 13.56 10.25 15.05 15.45 16.38 20.68 C 17.72 15.47 19.01 10.24 20.30 5.02 C 22.20 5.00 24.10 5.00 26.00 4.99 C 26.00 12.33 26.00 19.67 26.00 27.00 C 24.53 27.00 23.05 27.00 21.58 27.00 C 21.54 22.10 21.95 17.22 21.83 12.33 C 20.56 17.24 19.22 22.13 17.79 27.00 C 17.06 27.00 15.61 27.00 14.88 27.00 C 13.47 21.90 12.04 16.82 10.56 11.75 C 10.88 16.83 11.08 21.91 11.00 27.00 C 9.58 27.00 8.16 27.00 6.73 27.00 C 6.73 19.67 6.73 12.33 6.73 5.00 Z" />
<path fill="#ffffff" opacity="1.00" d=" M 29.73 5.00 C 33.82 5.00 37.91 5.00 42.00 5.00 C 42.00 5.75 42.00 7.25 42.00 8.00 C 39.33 8.00 36.67 8.00 34.00 8.00 C 34.00 10.00 34.00 12.00 34.00 14.00 C 36.25 14.01 38.49 13.99 40.74 14.01 C 40.74 14.75 40.74 16.25 40.74 16.99 C 38.49 17.01 36.25 16.99 34.00 17.00 C 34.00 19.34 34.00 21.67 34.00 24.00 C 36.67 24.00 39.33 24.00 42.00 24.00 C 42.00 24.75 42.00 26.25 42.00 27.00 C 37.91 27.00 33.82 27.00 29.73 27.00 C 29.73 19.67 29.73 12.33 29.73 5.00 Z" />
<path fill="#ffffff" opacity="1.00" d=" M 44.73 5.01 C 48.61 5.31 53.12 3.98 56.49 6.50 C 59.64 9.36 58.67 14.77 55.37 17.14 C 56.59 20.45 57.85 23.74 59.14 27.02 C 57.52 27.00 55.91 26.98 54.30 26.94 C 53.22 24.05 52.54 20.97 51.09 18.25 C 50.57 18.12 49.54 17.87 49.02 17.75 C 48.99 20.83 49.00 23.92 49.00 27.00 C 47.58 27.00 46.16 27.00 44.73 27.00 C 44.73 19.67 44.73 12.34 44.73 5.01 M 49.00 7.88 C 49.00 10.30 49.00 12.72 49.00 15.14 C 50.26 15.07 51.51 14.94 52.75 14.74 C 54.34 13.45 54.30 11.04 53.68 9.27 C 52.93 7.38 50.54 8.26 49.00 7.88 Z" />
<path fill="#ffffff" opacity="1.00" d=" M 61.90 9.95 C 63.25 4.76 70.49 3.39 74.25 6.77 C 75.64 8.14 75.87 10.18 76.38 11.98 C 74.96 11.99 73.55 12.00 72.14 12.00 C 71.71 10.30 71.40 7.64 68.98 7.95 C 66.28 7.72 65.66 10.96 65.64 13.00 C 65.69 16.40 64.99 20.19 66.71 23.28 C 69.30 25.47 72.31 22.97 72.13 20.01 C 73.54 20.00 74.95 20.00 76.36 20.01 C 75.84 21.79 75.75 23.88 74.34 25.25 C 70.68 28.31 63.93 27.58 62.14 22.75 C 60.84 18.66 61.01 14.11 61.90 9.95 Z" />
<path fill="#ffffff" opacity="1.00" d=" M 78.53 5.00 C 79.98 5.00 81.42 5.00 82.87 5.00 C 83.33 11.31 81.83 17.91 83.81 24.02 C 84.66 24.03 86.36 24.04 87.20 24.05 C 89.47 18.03 87.73 11.32 88.26 5.00 C 89.71 5.00 91.16 5.00 92.61 5.00 C 92.44 10.70 92.92 16.43 92.38 22.10 C 91.26 28.77 79.85 28.72 78.72 22.06 C 78.26 16.39 78.67 10.69 78.53 5.00 Z" />
<path fill="#ffffff" opacity="1.00" d=" M 95.73 5.01 C 99.78 5.34 104.72 3.81 107.98 6.96 C 110.52 10.04 109.49 14.85 106.37 17.14 C 107.58 20.45 108.85 23.74 110.13 27.02 C 108.52 27.00 106.91 26.98 105.30 26.94 C 104.22 24.05 103.53 20.98 102.09 18.25 C 101.58 18.12 100.54 17.87 100.02 17.75 C 99.99 20.83 100.00 23.92 100.00 27.00 C 98.58 27.00 97.15 27.00 95.73 27.00 C 95.73 19.67 95.73 12.34 95.73 5.01 M 100.00 7.88 C 100.00 10.30 100.00 12.72 100.00 15.15 C 101.28 15.07 102.55 14.93 103.81 14.72 C 105.32 13.38 105.30 11.05 104.68 9.28 C 103.94 7.38 101.55 8.26 100.00 7.88 Z" />
<path fill="#ffffff" opacity="1.00" d=" M 110.21 5.00 C 111.78 5.00 113.35 5.00 114.92 5.00 C 115.97 8.13 116.94 11.30 117.99 14.43 C 119.41 11.41 120.33 8.19 121.33 5.01 C 122.91 5.00 124.50 5.00 126.08 5.00 C 124.28 9.55 122.19 14.00 120.57 18.62 C 120.20 21.40 120.42 24.21 120.41 27.00 C 118.94 27.00 117.46 27.00 115.99 27.00 C 115.89 23.60 116.54 20.00 115.10 16.79 C 113.48 12.85 111.85 8.92 110.21 5.00 Z" />
</g>
<g id="#000000ff">
<path fill="#000000" opacity="1.00" d=" M 176.05 7.00 C 176.62 7.00 177.76 7.00 178.33 7.00 C 178.35 12.99 178.31 18.98 178.35 24.97 C 175.44 24.19 171.13 26.28 169.68 22.59 C 168.80 19.51 168.29 15.31 170.81 12.86 C 172.24 11.28 174.39 12.36 176.12 12.65 C 176.08 10.77 176.07 8.88 176.05 7.00 M 173.02 14.02 C 170.55 15.33 171.35 18.70 171.49 20.99 C 171.55 23.67 176.12 23.77 176.04 20.95 C 176.19 18.50 176.99 13.25 173.02 14.02 Z" />
<path fill="#000000" opacity="1.00" d=" M 181.56 8.23 C 182.52 6.80 185.18 8.26 184.02 9.78 C 183.07 11.20 180.40 9.74 181.56 8.23 Z" />
<path fill="#000000" opacity="1.00" d=" M 151.22 9.00 C 151.75 9.00 152.81 9.00 153.34 9.01 C 153.33 9.62 153.31 10.86 153.30 11.48 C 153.89 11.86 155.08 12.63 155.67 13.01 C 155.09 13.37 153.92 14.10 153.34 14.46 C 153.72 17.78 151.77 22.66 155.95 24.16 C 154.60 25.13 152.23 25.58 151.53 23.61 C 150.83 20.61 151.30 17.46 151.20 14.40 C 148.46 14.15 148.41 11.87 151.17 11.60 C 151.18 10.95 151.21 9.65 151.22 9.00 Z" />
<path fill="#000000" opacity="1.00" d=" M 139.69 14.14 C 141.83 10.33 147.11 11.99 148.39 15.66 C 145.76 17.02 143.77 12.03 141.57 14.95 C 142.03 18.08 147.61 17.40 147.83 20.94 C 148.12 23.57 145.47 25.53 143.00 25.05 C 140.65 25.02 139.55 22.70 138.63 20.91 C 140.22 20.82 141.53 21.42 142.25 22.87 C 143.70 22.89 146.04 23.28 145.74 21.00 C 143.61 18.84 138.16 18.27 139.69 14.14 Z" />
<path fill="#000000" opacity="1.00" d=" M 157.48 12.01 C 158.03 12.00 159.12 12.00 159.67 12.00 C 159.70 15.31 159.46 18.64 159.84 21.94 C 160.59 23.91 163.98 23.01 163.84 21.01 C 164.07 18.01 163.93 15.00 163.93 12.00 C 164.46 12.00 165.53 12.00 166.06 12.00 C 166.09 16.39 166.01 20.78 166.11 25.17 C 163.55 23.56 159.37 26.59 157.94 23.08 C 156.99 19.49 157.61 15.69 157.48 12.01 Z" />
<path fill="#000000" opacity="1.00" d=" M 181.67 12.00 C 182.20 12.00 183.27 12.00 183.80 12.00 C 183.80 16.33 183.80 20.67 183.80 25.00 C 183.27 25.00 182.20 25.00 181.67 25.00 C 181.66 20.67 181.66 16.33 181.67 12.00 Z" />
<path fill="#000000" opacity="1.00" d=" M 188.41 12.64 C 190.96 11.03 194.86 12.30 195.59 15.34 C 196.49 18.72 196.27 24.14 192.00 24.95 C 185.39 26.12 184.07 15.86 188.41 12.64 M 190.08 14.00 C 187.15 16.14 187.34 23.68 191.96 22.97 C 195.03 20.98 194.69 13.38 190.08 14.00 Z" />
</g>
</svg>
