<?xml version="1.0" encoding="UTF-8" ?>
<!DOCTYPE svg PUBLIC "-//W3C//DTD SVG 1.1//EN" "http://www.w3.org/Graphics/SVG/1.1/DTD/svg11.dtd">
<svg width="30pt" height="30pt" viewBox="0 0 30 30" version="1.1" xmlns="http://www.w3.org/2000/svg">
<g id="#222222ff">
<path fill="#222222" opacity="1.00" d=" M 0.00 0.00 L 30.00 0.00 L 30.00 30.00 L 0.00 30.00 L 0.00 0.00 M 5.15 12.03 C 6.72 18.14 11.89 23.28 17.99 24.87 C 20.80 25.79 24.12 23.60 23.92 20.55 C 22.26 19.69 20.62 18.81 18.98 17.92 C 18.25 18.86 17.51 19.79 16.77 20.73 C 13.43 19.24 10.77 16.56 9.26 13.23 C 10.20 12.50 11.14 11.76 12.07 11.03 C 11.21 9.41 10.35 7.79 9.53 6.15 C 6.42 5.76 4.19 9.22 5.15 12.03 Z" />
</g>
<g id="#fefefeff">
<path fill="#fefefe" opacity="1.00" d=" M 5.15 12.03 C 4.19 9.22 6.42 5.76 9.53 6.15 C 10.35 7.79 11.21 9.41 12.07 11.03 C 11.14 11.76 10.20 12.50 9.26 13.23 C 10.77 16.56 13.43 19.24 16.77 20.73 C 17.51 19.79 18.25 18.86 18.98 17.92 C 20.62 18.81 22.26 19.69 23.92 20.55 C 24.12 23.60 20.80 25.79 17.99 24.87 C 11.89 23.28 6.72 18.14 5.15 12.03 Z" />
</g>
</svg>
